<?xml version="1.0" standalone="no"?>
<!DOCTYPE svg PUBLIC "-//W3C//DTD SVG 20010904//EN"
 "http://www.w3.org/TR/2001/REC-SVG-20010904/DTD/svg10.dtd">
<svg version="1.0" xmlns="http://www.w3.org/2000/svg"
 width="512.000000pt" height="512.000000pt" viewBox="0 0 512.000000 512.000000"
 preserveAspectRatio="xMidYMid meet">
<metadata>
Created by potrace 1.14, written by Peter Selinger 2001-2017
</metadata>
<g transform="translate(0.000000,512.000000) scale(0.100000,-0.100000)"
fill="#000000" stroke="none">
<path d="M0 2560 l0 -2560 2560 0 2560 0 0 2560 0 2560 -2560 0 -2560 0 0
-2560z m1921 1581 c16 -16 29 -32 29 -36 0 -8 40 -62 72 -97 15 -16 30 -38 33
-49 4 -10 10 -19 15 -19 5 0 16 -12 24 -27 8 -16 25 -39 38 -53 30 -31 68 -88
68 -100 0 -6 4 -10 10 -10 5 0 22 -19 37 -42 15 -24 36 -49 45 -56 10 -7 18
-19 18 -25 0 -7 12 -26 27 -42 34 -36 73 -93 73 -105 0 -6 4 -10 10 -10 5 0
22 -19 37 -42 15 -24 36 -49 45 -56 10 -7 18 -19 18 -25 0 -7 15 -29 33 -49
28 -32 66 -81 177 -232 53 -71 160 -212 180 -237 12 -14 29 -37 38 -52 9 -14
45 -62 80 -106 88 -114 90 -119 56 -172 -15 -24 -35 -50 -46 -57 -10 -7 -18
-19 -18 -25 0 -7 -10 -23 -22 -37 -13 -14 -45 -56 -73 -93 -27 -38 -66 -88
-85 -112 -40 -50 -160 -210 -175 -234 -5 -9 -23 -32 -40 -52 -16 -20 -52 -68
-80 -105 -27 -38 -60 -80 -73 -94 -12 -14 -22 -30 -22 -37 0 -6 -8 -18 -18
-25 -11 -7 -31 -32 -46 -55 -14 -24 -31 -43 -36 -43 -6 0 -10 -5 -10 -11 0
-11 -40 -68 -73 -104 -10 -11 -25 -32 -33 -47 -8 -16 -18 -28 -22 -28 -5 0
-18 -18 -31 -40 -12 -22 -28 -43 -35 -47 -6 -5 -22 -24 -34 -43 -11 -20 -33
-49 -47 -65 -14 -17 -33 -42 -41 -57 -8 -16 -18 -28 -22 -28 -4 0 -20 -20 -35
-45 -16 -25 -32 -45 -36 -45 -4 0 -13 -11 -19 -25 l-12 -25 -540 0 c-370 0
-540 3 -540 10 0 17 29 68 43 77 7 4 23 24 35 43 11 20 33 49 47 65 14 17 33
42 41 58 8 15 18 27 22 27 4 0 16 14 26 31 10 18 26 39 35 48 9 9 30 37 46 61
17 24 42 57 58 74 15 17 27 36 27 44 0 7 7 15 15 18 8 3 25 25 39 49 14 23 32
45 41 49 8 3 15 10 15 16 0 13 33 60 73 104 15 17 27 36 27 44 0 7 7 15 15 18
8 3 25 25 39 49 14 23 32 45 41 49 8 3 15 10 15 16 0 13 33 60 73 104 15 17
30 39 33 48 3 10 9 18 14 18 5 0 15 11 22 24 7 14 26 39 41 58 15 18 53 67 82
108 30 41 63 84 74 95 10 11 20 25 22 32 2 6 16 26 32 45 63 76 107 138 107
152 0 8 -8 21 -19 28 -10 7 -27 27 -37 43 -23 37 -102 143 -127 170 -10 11
-25 32 -33 48 -8 15 -18 27 -22 27 -4 0 -16 14 -26 31 -10 18 -26 39 -35 48
-9 9 -29 37 -46 61 -16 24 -38 52 -47 62 -9 9 -24 31 -33 47 -8 17 -19 31 -23
31 -4 0 -16 14 -26 31 -10 18 -26 39 -35 48 -9 9 -29 37 -46 61 -16 24 -42 57
-57 74 -16 17 -28 36 -28 44 0 7 -7 15 -15 19 -9 3 -23 19 -31 35 -8 16 -23
37 -32 46 -9 10 -30 38 -47 62 -16 24 -42 58 -58 74 -15 17 -30 39 -33 48 -3
10 -9 18 -14 18 -4 0 -20 20 -34 45 -15 25 -31 45 -37 45 -5 0 -13 8 -16 18
-8 22 -40 66 -76 106 -15 17 -30 39 -33 48 -3 10 -9 18 -13 18 -5 0 -21 20
-37 45 -15 25 -31 45 -35 45 -8 0 -49 67 -49 81 0 5 207 9 536 9 l536 0 29
-29z m2409 14 c0 -7 -6 -18 -13 -22 -7 -4 -25 -27 -40 -50 -15 -24 -32 -43
-37 -43 -6 0 -10 -4 -10 -10 0 -12 -38 -69 -68 -100 -13 -14 -30 -37 -38 -52
-8 -16 -19 -28 -24 -28 -5 0 -11 -8 -14 -18 -3 -9 -18 -31 -33 -48 -40 -44
-73 -91 -73 -104 0 -6 -7 -13 -15 -16 -9 -4 -27 -26 -41 -49 -14 -24 -31 -46
-39 -49 -8 -3 -15 -11 -15 -18 0 -8 -12 -27 -27 -44 -16 -17 -41 -50 -58 -74
-16 -24 -38 -52 -47 -62 -9 -9 -24 -31 -33 -47 -8 -17 -20 -31 -25 -31 -5 0
-17 -14 -25 -31 -9 -16 -24 -38 -33 -47 -9 -10 -30 -38 -47 -62 -16 -24 -37
-52 -46 -61 -9 -9 -25 -30 -35 -48 -24 -41 -50 -39 -75 4 -12 19 -24 35 -28
35 -4 0 -15 14 -25 31 -10 18 -26 39 -35 48 -9 9 -29 37 -46 61 -16 24 -42 57
-57 74 -16 17 -28 36 -28 44 0 7 -7 15 -15 19 -9 3 -23 19 -31 35 -8 16 -23
37 -32 46 -9 10 -30 38 -47 62 -16 24 -42 57 -57 74 -16 17 -28 34 -28 38 0 4
-8 15 -18 25 -11 10 -27 33 -38 51 -18 31 -18 33 0 65 11 17 27 40 38 50 10
10 18 21 18 25 0 4 12 21 28 38 35 40 67 84 75 107 3 9 11 17 16 17 5 0 19 17
32 38 12 20 27 42 33 47 6 6 24 29 40 53 l29 42 543 0 c469 0 544 -2 544 -15z
m-829 -2115 c18 -27 35 -50 39 -50 3 0 19 -20 34 -45 16 -25 32 -45 37 -45 4
0 10 -8 13 -18 3 -9 18 -31 33 -48 40 -44 73 -91 73 -104 0 -6 7 -13 15 -16 9
-4 27 -26 41 -49 14 -24 31 -46 39 -49 8 -3 15 -11 15 -18 0 -8 12 -27 28 -44
39 -44 72 -91 72 -104 0 -6 6 -13 14 -16 8 -3 27 -24 42 -47 15 -23 33 -46 41
-50 7 -4 13 -14 13 -20 0 -7 14 -28 31 -46 17 -19 43 -53 57 -75 15 -23 32
-44 39 -49 7 -4 22 -25 34 -47 13 -22 26 -40 31 -40 4 0 14 -12 22 -27 8 -16
26 -41 40 -57 52 -58 75 -56 -519 -56 l-545 0 -9 23 c-5 12 -21 35 -36 51 -14
16 -38 47 -53 69 -15 23 -34 49 -43 58 -9 9 -25 30 -35 48 -10 17 -22 31 -26
31 -4 0 -14 12 -22 28 -8 15 -23 36 -33 47 -33 36 -63 83 -63 99 0 18 28 60
73 110 15 17 27 36 27 44 0 7 7 15 15 18 8 3 26 26 40 50 14 24 30 44 36 44 5
0 13 8 16 18 8 22 40 66 76 106 15 17 30 39 33 48 3 10 9 18 14 18 5 0 16 12
24 28 8 15 27 41 43 59 15 17 51 63 78 102 28 38 55 70 62 70 6 1 26 -21 44
-49z"/>
</g>
</svg>
